<?xml version="1.0" encoding="UTF-8" standalone="no"?>
<svg
   xmlns:dc="http://purl.org/dc/elements/1.1/"
   xmlns:cc="http://creativecommons.org/ns#"
   xmlns:rdf="http://www.w3.org/1999/02/22-rdf-syntax-ns#"
   xmlns:svg="http://www.w3.org/2000/svg"
   xmlns="http://www.w3.org/2000/svg"
   xmlns:sodipodi="http://sodipodi.sourceforge.net/DTD/sodipodi-0.dtd"
   xmlns:inkscape="http://www.inkscape.org/namespaces/inkscape"
   height="100"
   viewBox="0 0 75.000003 75.000003"
   width="100"
   version="1.1"
   id="svg1859"
   sodipodi:docname="1.svg"
   inkscape:version="0.92.4 (5da689c313, 2019-01-14)">
  <metadata
     id="metadata1865">
    <rdf:RDF>
      <cc:Work
         rdf:about="">
        <dc:format>image/svg+xml</dc:format>
        <dc:type
           rdf:resource="http://purl.org/dc/dcmitype/StillImage" />
        <dc:title></dc:title>
      </cc:Work>
    </rdf:RDF>
  </metadata>
  <defs
     id="defs1863" />
  <sodipodi:namedview
     pagecolor="#ffffff"
     bordercolor="#666666"
     borderopacity="1"
     objecttolerance="10"
     gridtolerance="10"
     guidetolerance="10"
     inkscape:pageopacity="0"
     inkscape:pageshadow="2"
     inkscape:window-width="1920"
     inkscape:window-height="1001"
     id="namedview1861"
     showgrid="false"
     units="px"
     inkscape:zoom="3.9111844"
     inkscape:cx="15.887797"
     inkscape:cy="47.412666"
     inkscape:window-x="-9"
     inkscape:window-y="-9"
     inkscape:window-maximized="1"
     inkscape:current-layer="svg1859" />
  <g
     id="g2414"
     transform="translate(3.2089249,1.2402082)">
    <path
       style="stroke-width:0.13684054"
       inkscape:connector-curvature="0"
       id="path1851"
       d="m 41.626476,48.212495 c -1.569388,1.569392 -4.932141,2.129579 -7.328451,2.129579 -2.403261,0 -5.759065,-0.560187 -7.328454,-2.129579 -0.371501,-0.371504 -0.966971,-0.371504 -1.337935,0 -0.371502,0.371497 -0.371502,0.966966 0,1.337935 2.487184,2.487187 7.265374,2.683356 8.666389,2.683356 1.401011,0 6.172255,-0.196169 8.666925,-2.683356 0.364016,-0.371497 0.364016,-0.966972 0,-1.337935 -0.371503,-0.371504 -0.966972,-0.371504 -1.338474,0 z m 0,0" />
    <path
       style="stroke-width:0.13684054"
       inkscape:connector-curvature="0"
       id="path1853"
       d="m 29.912179,39.910123 c 0,-2.010917 -1.639415,-3.650328 -3.650328,-3.650328 -2.010382,0 -3.650327,1.639411 -3.650327,3.650328 0,2.010379 1.639945,3.650328 3.650327,3.650328 2.010913,0 3.650328,-1.639415 3.650328,-3.650328 z m 0,0" />
    <path
       style="stroke-width:0.13684054"
       inkscape:connector-curvature="0"
       id="path1855"
       d="m 34.291074,1.2286127 c -19.344226,0 -35.03117676,15.6869523 -35.03117676,35.0311783 0,19.344229 15.68695076,35.031183 35.03117676,35.031183 19.34423,0 35.031182,-15.686954 35.031182,-35.031183 0,-19.344226 -15.686952,-35.0311783 -35.031182,-35.0311783 z m 20.3251,39.7040703 c 0.07697,0.504601 0.119199,1.016148 0.119199,1.534646 0,7.860843 -9.150142,14.229815 -20.437348,14.229815 -11.287208,0 -20.43735,-6.368972 -20.43735,-14.229815 0,-0.525446 0.04223,-1.043945 0.119202,-1.548545 -1.779461,-0.798593 -3.019579,-2.585001 -3.019579,-4.658993 0,-2.816454 2.28406,-5.107466 5.107466,-5.107466 1.373216,0 2.613334,0.539346 3.531129,1.422392 3.545022,-2.557207 8.4499,-4.190203 13.907487,-4.330252 0,-0.07002 2.550259,-12.218901 2.550259,-12.218901 0.04917,-0.237867 0.189225,-0.441524 0.392349,-0.574088 0.20312,-0.133098 0.448472,-0.175326 0.686872,-0.126151 l 8.491598,1.80726 c 0.59547,-1.204838 1.821155,-2.038712 3.257449,-2.038712 2.017861,0 3.650328,1.632467 3.650328,3.650329 0,2.017864 -1.632467,3.650326 -3.650328,3.650326 -1.954789,0 -3.538077,-1.541593 -3.628947,-3.474998 l -7.602134,-1.618568 -2.325758,10.950987 c 5.359769,0.188688 10.17324,1.814204 13.662142,4.336667 0.917792,-0.889463 2.164858,-1.436291 3.545025,-1.436291 2.82394,0 5.107466,2.28406 5.107466,5.107466 0,2.087888 -1.254017,3.874299 -3.026527,4.672892 z m 0,0" />
    <path
       style="stroke-width:0.13684054"
       inkscape:connector-curvature="0"
       id="path1857"
       d="m 42.320301,36.259795 c -2.010913,0 -3.650329,1.639411 -3.650329,3.650328 0,2.010379 1.639416,3.650328 3.650329,3.650328 2.010379,0 3.650327,-1.639949 3.650327,-3.650328 0,-2.010917 -1.639411,-3.650328 -3.650327,-3.650328 z m 0,0" />
  </g>
</svg>
