<?xml version="1.0" encoding="UTF-8" standalone="no"?>
<!-- Created with Inkscape (http://www.inkscape.org/) -->

<svg
   xmlns:dc="http://purl.org/dc/elements/1.1/"
   xmlns:cc="http://creativecommons.org/ns#"
   xmlns:rdf="http://www.w3.org/1999/02/22-rdf-syntax-ns#"
   xmlns:svg="http://www.w3.org/2000/svg"
   xmlns="http://www.w3.org/2000/svg"
   xmlns:sodipodi="http://sodipodi.sourceforge.net/DTD/sodipodi-0.dtd"
   xmlns:inkscape="http://www.inkscape.org/namespaces/inkscape"
   width="100"
   height="100"
   version="1.1"
   viewBox="0 0 26.5 26.5"
   id="svg925"
   sodipodi:docname="frend_ink.svg"
   inkscape:version="0.92.4 (5da689c313, 2019-01-14)">
  <defs
     id="defs929" />
  <sodipodi:namedview
     pagecolor="#ffffff"
     bordercolor="#666666"
     borderopacity="1"
     objecttolerance="10"
     gridtolerance="10"
     guidetolerance="10"
     inkscape:pageopacity="0"
     inkscape:pageshadow="2"
     inkscape:window-width="1920"
     inkscape:window-height="1001"
     id="namedview927"
     showgrid="true"
     inkscape:zoom="2.8284271"
     inkscape:cx="-5.9626981"
     inkscape:cy="60.509135"
     inkscape:window-x="-9"
     inkscape:window-y="-9"
     inkscape:window-maximized="1"
     inkscape:current-layer="g921"
     inkscape:snap-global="false">
    <inkscape:grid
       type="xygrid"
       id="grid882"
       spacingx="13.25"
       spacingy="13.25" />
  </sodipodi:namedview>
  <metadata
     id="metadata901">
    <rdf:RDF>
      <cc:Work
         rdf:about="">
        <dc:format>image/svg+xml</dc:format>
        <dc:type
           rdf:resource="http://purl.org/dc/dcmitype/StillImage" />
        <dc:title></dc:title>
      </cc:Work>
    </rdf:RDF>
  </metadata>
  <g
     id="g1485"
     transform="translate(0,1.2913136)">
    <g
       id="g923"
       transform="translate(0,-271)">
      <g
         id="g921"
         transform="translate(0.117,0.654)">
        <g
           id="g919"
           transform="translate(1.1512957,-0.19849926)">
          <path
             id="path911"
             style="opacity:0.98999999;paint-order:normal"
             d="m 13.6,287.99242 a 12.5,8.44 0 0 1 -0.0118,0.366"
             inkscape:connector-curvature="0" />
          <g
             id="g925"
             transform="translate(0.03551142,1.698257)">
            <g
               transform="matrix(0.9064155,0,0,1.099087,1.0888373,6.2973659)"
               id="g916">
              <path
                 style="color:#000000;font-style:normal;font-variant:normal;font-weight:normal;font-stretch:normal;font-size:medium;line-height:normal;font-family:sans-serif;font-variant-ligatures:normal;font-variant-position:normal;font-variant-caps:normal;font-variant-numeric:normal;font-variant-alternates:normal;font-feature-settings:normal;text-indent:0;text-align:start;text-decoration:none;text-decoration-line:none;text-decoration-style:solid;text-decoration-color:#000000;letter-spacing:normal;word-spacing:normal;text-transform:none;writing-mode:lr-tb;direction:ltr;text-orientation:mixed;dominant-baseline:auto;baseline-shift:baseline;text-anchor:start;white-space:normal;shape-padding:0;clip-rule:nonzero;display:inline;overflow:visible;visibility:visible;opacity:1;isolation:auto;mix-blend-mode:normal;color-interpolation:sRGB;color-interpolation-filters:linearRGB;solid-color:#000000;solid-opacity:1;vector-effect:none;fill:#000000;fill-opacity:1;fill-rule:nonzero;stroke:none;stroke-width:0.53584254;stroke-linecap:round;stroke-linejoin:round;stroke-miterlimit:4;stroke-dasharray:none;stroke-dashoffset:0;stroke-opacity:1;color-rendering:auto;image-rendering:auto;shape-rendering:auto;text-rendering:auto;enable-background:accumulate"
                 d="m -1.2675781,242.48438 c -0.1492223,-8.8e-4 -0.2704149,0.12031 -0.2695313,0.26953 v 13.25 c 2.069e-4,0.14846 0.1210775,0.26845 0.2695313,0.26757 l 12.7225781,0.0248 -0.711484,0.95696 c -0.193983,0.25958 -0.04517,0.53339 0.381484,0.5475 h 0.373047 0.484375 c -0.0017,-0.20721 -0.0046,-0.1933 -0.0029,-0.46782 -0.152828,-0.006 -0.225651,0.01 -0.343787,0.0385 -0.354324,0.0868 -0.503242,-0.10714 -0.257855,-0.50515 0.170811,-0.27705 0.478559,-0.56522 0.705999,-0.82794 0.101456,-0.17843 0.103833,-0.30356 -0.101431,-0.30395 H -1 v -12.7129 h 12.982422 c 0.358067,0 0.358067,-0.5371 0,-0.5371 z"
                 id="path890"
                 inkscape:connector-curvature="0"
                 sodipodi:nodetypes="ccccccccccssccccssc" />
              <path
                 style="color:#000000;font-style:normal;font-variant:normal;font-weight:normal;font-stretch:normal;font-size:medium;line-height:normal;font-family:sans-serif;font-variant-ligatures:normal;font-variant-position:normal;font-variant-caps:normal;font-variant-numeric:normal;font-variant-alternates:normal;font-feature-settings:normal;text-indent:0;text-align:start;text-decoration:none;text-decoration-line:none;text-decoration-style:solid;text-decoration-color:#000000;letter-spacing:normal;word-spacing:normal;text-transform:none;writing-mode:lr-tb;direction:ltr;text-orientation:mixed;dominant-baseline:auto;baseline-shift:baseline;text-anchor:start;white-space:normal;shape-padding:0;clip-rule:nonzero;display:inline;overflow:visible;visibility:visible;opacity:1;isolation:auto;mix-blend-mode:normal;color-interpolation:sRGB;color-interpolation-filters:linearRGB;solid-color:#000000;solid-opacity:1;vector-effect:none;fill:#000000;fill-opacity:1;fill-rule:nonzero;stroke:none;stroke-width:0.53584254;stroke-linecap:round;stroke-linejoin:round;stroke-miterlimit:4;stroke-dasharray:none;stroke-dashoffset:0;stroke-opacity:1;color-rendering:auto;image-rendering:auto;shape-rendering:auto;text-rendering:auto;enable-background:accumulate"
                 d="m 25.224264,242.48573 c 0.149222,-8.8e-4 0.270415,0.12031 0.269531,0.26953 v 13.25 c -2.06e-4,0.14846 -0.121077,0.26845 -0.269531,0.26757 l -12.722577,0.0248 0.711483,0.95696 c 0.193984,0.25958 0.04517,0.53339 -0.381483,0.5475 H 12.45864 11.974264 c 0.0017,-0.20721 0.0046,-0.1933 0.0029,-0.46782 0.152827,-0.006 0.22565,0.01 0.343786,0.0385 0.354324,0.0868 0.503243,-0.10714 0.257855,-0.50515 -0.170811,-0.27705 -0.478559,-0.56522 -0.705998,-0.82794 -0.101457,-0.17843 -0.103834,-0.30356 0.10143,-0.30395 h 12.982449 v -12.7129 H 11.974264 c -0.358067,0 -0.358067,-0.5371 0,-0.5371 z"
                 id="path890-2"
                 inkscape:connector-curvature="0"
                 sodipodi:nodetypes="ccccccccccssccccssc" />
            </g>
            <g
               transform="translate(-1.5478969,-1.9704517)"
               id="g880">
              <g
                 id="g915"
                 transform="matrix(0.652,0,0,0.652,-46.4,223)"
                 style="fill:#eaeaeb;stroke:#27292a">
                <rect
                   id="rect913"
                   style="opacity:0.98999999;fill:#eaeaeb;stroke:#27292a;stroke-width:0.47467273;stroke-miterlimit:4;stroke-dasharray:none;paint-order:normal"
                   ry="0.347"
                   height="8.6899996"
                   width="15.1"
                   y="99.699997"
                   x="-105"
                   transform="rotate(-90)" />
              </g>
              <path
                 id="path917"
                 style="opacity:0.98999999;fill:#27292a;stroke:none;stroke-width:0.0101;stroke-linecap:round;stroke-linejoin:round;paint-order:normal"
                 d="m 21.9,290.75437 a 0.353,0.353 0 0 1 -0.352,0.353 0.353,0.353 0 0 1 -0.354,-0.351 0.353,0.353 0 0 1 0.35,-0.356 0.353,0.353 0 0 1 0.357,0.349"
                 inkscape:connector-curvature="0" />
            </g>
          </g>
        </g>
      </g>
    </g>
  </g>
</svg>
