<?xml version="1.0" encoding="UTF-8"?>
<!-- Created with Inkscape (http://www.inkscape.org/) -->
<svg width="100" height="100" version="1.1" viewBox="0 0 26.5 26.5" xmlns="http://www.w3.org/2000/svg" xmlns:cc="http://creativecommons.org/ns#" xmlns:dc="http://purl.org/dc/elements/1.1/" xmlns:rdf="http://www.w3.org/1999/02/22-rdf-syntax-ns#">
 <metadata>
  <rdf:RDF>
   <cc:Work rdf:about="">
    <dc:format>image/svg+xml</dc:format>
    <dc:type rdf:resource="http://purl.org/dc/dcmitype/StillImage"/>
    <dc:title/>
   </cc:Work>
  </rdf:RDF>
 </metadata>
 <g transform="translate(0 -271)">
  <path d="m4.66 293-1.63-1e-3c0.585-0.323 0.695-0.867 0.814-1.41 0.0725 0.566 0.231 1.06 0.792 1.4z" fill="#27292a" stroke="#27292a" stroke-linejoin="round" stroke-width=".152"/>
  <path d="m23.2 293-1.63-1e-3c0.585-0.323 0.695-0.867 0.814-1.41 0.0725 0.566 0.231 1.06 0.792 1.4z" fill="#27292a" stroke="#27292a" stroke-linejoin="round" stroke-width=".152"/>
  <g fill="none">
   <rect x=".694" y="275" width="24.7" height="16.5" ry=".507" opacity=".99" stroke="#27292a" stroke-linecap="round" stroke-width=".424" style="paint-order:normal"/>
   <rect transform="rotate(59.4)" x="242" y="138" width="10.4" height="1.03" rx="0" ry=".172" fill="#27292a" opacity=".99" stroke="#27292a" stroke-linecap="round" stroke-linejoin="round" stroke-width=".0885" style="paint-order:normal"/>
   <path d="m5.29 284" stroke="#000" stroke-width=".265px"/>
  </g>
  <g transform="matrix(.863 0 0 1.04 1.03 -11.7)" fill="#27292a" stroke="#27292a">
   <path d="m13 280-0.25 0.919v5.3c0.169 0.133 0.434 0.0776 0.501-0.023 0.0165-2.02-0.0195-3.3-0.0451-5.29z" fill="#27292a" stroke="#27292a" stroke-width=".0852"/>
  </g>
  <path d="m13.7 286c0.054-0.0521-0.267-0.154-0.143-0.287 0.412-0.446 1.19-1.32 2.16-2.43 0.321-0.366 0.969-1.1 0.969-1.1l0.2-0.236c-0.225-0.613 0.0376-0.74 0.686-0.99 0.479-0.317 0.646-0.802 0.646-0.802s-0.0642 1.46-0.364 1.75c-0.262 0.254-0.759 0.176-0.759 0.176s-1.22 1.35-1.23 1.35l-2.17 2.55" fill="#27292a" stroke="#27292a" stroke-width=".0942"/>
 </g>
</svg>
