<?xml version="1.0" encoding="UTF-8" standalone="no"?>
<!-- Created with Inkscape (http://www.inkscape.org/) -->

<svg
   xmlns:dc="http://purl.org/dc/elements/1.1/"
   xmlns:cc="http://creativecommons.org/ns#"
   xmlns:rdf="http://www.w3.org/1999/02/22-rdf-syntax-ns#"
   xmlns:svg="http://www.w3.org/2000/svg"
   xmlns="http://www.w3.org/2000/svg"
   xmlns:sodipodi="http://sodipodi.sourceforge.net/DTD/sodipodi-0.dtd"
   xmlns:inkscape="http://www.inkscape.org/namespaces/inkscape"
   width="100"
   height="100"
   version="1.1"
   viewBox="0 0 26.5 26.5"
   id="svg865"
   sodipodi:docname="gd_ink.svg"
   inkscape:version="0.92.4 (5da689c313, 2019-01-14)">
  <defs
     id="defs869" />
  <sodipodi:namedview
     pagecolor="#ffffff"
     bordercolor="#666666"
     borderopacity="1"
     objecttolerance="10"
     gridtolerance="10"
     guidetolerance="10"
     inkscape:pageopacity="0"
     inkscape:pageshadow="2"
     inkscape:window-width="1920"
     inkscape:window-height="1001"
     id="namedview867"
     showgrid="false"
     inkscape:zoom="7.99"
     inkscape:cx="20.879905"
     inkscape:cy="40.891988"
     inkscape:window-x="-9"
     inkscape:window-y="-9"
     inkscape:window-maximized="1"
     inkscape:current-layer="g855" />
  <metadata
     id="metadata843">
    <rdf:RDF>
      <cc:Work
         rdf:about="">
        <dc:format>image/svg+xml</dc:format>
        <dc:type
           rdf:resource="http://purl.org/dc/dcmitype/StillImage" />
        <dc:title></dc:title>
      </cc:Work>
    </rdf:RDF>
  </metadata>
  <g
     transform="translate(0 -271)"
     id="g863">
    <path
       d="m4.66 293-1.63-1e-3c0.585-0.323 0.695-0.867 0.814-1.41 0.0725 0.566 0.231 1.06 0.792 1.4z"
       fill="#27292a"
       stroke="#27292a"
       stroke-linejoin="round"
       stroke-width=".152"
       id="path845" />
    <path
       d="m23.2 293-1.63-1e-3c0.585-0.323 0.695-0.867 0.814-1.41 0.0725 0.566 0.231 1.06 0.792 1.4z"
       fill="#27292a"
       stroke="#27292a"
       stroke-linejoin="round"
       stroke-width=".152"
       id="path847" />
    <g
       fill="none"
       id="g855">
      <rect
         x=".694"
         y="275"
         width="24.7"
         height="16.5"
         ry=".507"
         opacity=".99"
         stroke="#27292a"
         stroke-linecap="round"
         stroke-width=".424"
         style="paint-order:normal"
         id="rect849" />
      <rect
         transform="rotate(59.4)"
         x="242"
         y="138"
         width="10.4"
         height="1.03"
         rx="0"
         ry=".172"
         opacity=".99"
         stroke="#27292a"
         stroke-linecap="round"
         stroke-linejoin="round"
         stroke-width=".0885"
         style="paint-order:normal;fill:#27292a;fill-opacity:1"
         id="rect851" />
      <path
         d="m5.29 284"
         stroke="#000"
         stroke-width=".265px"
         id="path853" />
    </g>
    <g
       transform="matrix(.863 0 0 1.04 1.03 -11.7)"
       stroke="#27292a"
       id="g859"
       style="fill:#27292a;fill-opacity:1">
      <path
         d="m13 280-0.25 0.919v5.3c0.169 0.133 0.434 0.0776 0.501-0.023 0.0165-2.02-0.0195-3.3-0.0451-5.29z"
         fill="none"
         stroke="#27292a"
         stroke-width=".0852"
         id="path857"
         style="fill:#27292a;fill-opacity:1" />
    </g>
    <path
       d="m13.7 286c0.054-0.0521-0.267-0.154-0.143-0.287 0.412-0.446 1.19-1.32 2.16-2.43 0.321-0.366 0.969-1.1 0.969-1.1l0.2-0.236c-0.225-0.613 0.0376-0.74 0.686-0.99 0.479-0.317 0.646-0.802 0.646-0.802s-0.0642 1.46-0.364 1.75c-0.262 0.254-0.759 0.176-0.759 0.176s-1.22 1.35-1.23 1.35l-2.17 2.55"
       fill="none"
       stroke="#27292a"
       stroke-width=".0942"
       id="path861"
       style="fill:#27292a;fill-opacity:1" />
  </g>
</svg>
