<?xml version="1.0" encoding="UTF-8"?>
<svg width="100" height="100" version="1.1" viewBox="0 0 75 75" xmlns="http://www.w3.org/2000/svg" xmlns:cc="http://creativecommons.org/ns#" xmlns:dc="http://purl.org/dc/elements/1.1/" xmlns:rdf="http://www.w3.org/1999/02/22-rdf-syntax-ns#">
 <metadata>
  <rdf:RDF>
   <cc:Work rdf:about="">
    <dc:format>image/svg+xml</dc:format>
    <dc:type rdf:resource="http://purl.org/dc/dcmitype/StillImage"/>
    <dc:title/>
   </cc:Work>
  </rdf:RDF>
 </metadata>
 <g transform="translate(3.21 1.24)" fill="#27292a" fill-opacity=".962" stroke-width=".137">
  <path d="m41.6 48.2c-1.57 1.57-4.93 2.13-7.33 2.13-2.4 0-5.76-0.56-7.33-2.13-0.372-0.372-0.967-0.372-1.34 0-0.372 0.371-0.372 0.967 0 1.34 2.49 2.49 7.27 2.68 8.67 2.68 1.4 0 6.17-0.196 8.67-2.68 0.364-0.371 0.364-0.967 0-1.34-0.372-0.372-0.967-0.372-1.34 0z"/>
  <path d="m29.9 39.9c0-2.01-1.64-3.65-3.65-3.65-2.01 0-3.65 1.64-3.65 3.65 0 2.01 1.64 3.65 3.65 3.65 2.01 0 3.65-1.64 3.65-3.65z"/>
  <path d="m34.3 1.23c-19.3 0-35 15.7-35 35 0 19.3 15.7 35 35 35 19.3 0 35-15.7 35-35 0-19.3-15.7-35-35-35zm20.3 39.7c0.077 0.505 0.119 1.02 0.119 1.53 0 7.86-9.15 14.2-20.4 14.2-11.3 0-20.4-6.37-20.4-14.2 0-0.525 0.0422-1.04 0.119-1.55-1.78-0.799-3.02-2.59-3.02-4.66 0-2.82 2.28-5.11 5.11-5.11 1.37 0 2.61 0.539 3.53 1.42 3.55-2.56 8.45-4.19 13.9-4.33 0-0.07 2.55-12.2 2.55-12.2 0.0492-0.238 0.189-0.442 0.392-0.574 0.203-0.133 0.448-0.175 0.687-0.126l8.49 1.81c0.595-1.2 1.82-2.04 3.26-2.04 2.02 0 3.65 1.63 3.65 3.65 0 2.02-1.63 3.65-3.65 3.65-1.95 0-3.54-1.54-3.63-3.47l-7.6-1.62-2.33 11c5.36 0.189 10.2 1.81 13.7 4.34 0.918-0.889 2.16-1.44 3.55-1.44 2.82 0 5.11 2.28 5.11 5.11 0 2.09-1.25 3.87-3.03 4.67z"/>
  <path d="m42.3 36.3c-2.01 0-3.65 1.64-3.65 3.65 0 2.01 1.64 3.65 3.65 3.65 2.01 0 3.65-1.64 3.65-3.65 0-2.01-1.64-3.65-3.65-3.65z"/>
 </g>
</svg>
