<?xml version="1.0" encoding="UTF-8"?>
<!-- Created with Inkscape (http://www.inkscape.org/) -->
<svg width="100" height="100" version="1.1" viewBox="0 0 26.5 26.5" xmlns="http://www.w3.org/2000/svg" xmlns:cc="http://creativecommons.org/ns#" xmlns:dc="http://purl.org/dc/elements/1.1/" xmlns:rdf="http://www.w3.org/1999/02/22-rdf-syntax-ns#">
 <metadata>
  <rdf:RDF>
   <cc:Work rdf:about="">
    <dc:format>image/svg+xml</dc:format>
    <dc:type rdf:resource="http://purl.org/dc/dcmitype/StillImage"/>
    <dc:title/>
   </cc:Work>
  </rdf:RDF>
 </metadata>
 <g transform="translate(0 -271)">
  <g transform="matrix(.171 0 0 .171 1.06 245)" fill="#27292a" stroke="#27292a" stroke-width="2.76">
   <g transform="translate(-46.5 99.8)" aria-label="V">
    <path d="m49.7 65.4 2.74-7.41h0.956l2.69 7.41h-0.966l-2.05-5.88q-0.0982-0.284-0.15-0.656h-0.0207q-0.0413 0.31-0.171 0.667l-2.09 5.87z" stroke-width="2.76"/>
    <path d="m52.9 60.5v132" stroke-width="2.76"/>
    <g transform="rotate(-.0713 -162 419)" stroke-width="2.76">
     <path d="m179 188 7.42 2.72 3e-3 0.956-7.4 2.71-3e-3 -0.966 5.87-2.07q0.284-0.099 0.656-0.152l-6e-5 -0.0207q-0.31-0.0404-0.667-0.169l-5.87-2.08z" stroke-linecap="round"/>
     <path d="m185 191-132 0.395"/>
    </g>
   </g>
   <rect x="55.3" y="174" width="5.67" height="115" ry="0" opacity=".99" style="paint-order:normal"/>
   <rect x="18.2" y="219" width="6.48" height="70.4" ry="0" opacity=".99" style="paint-order:normal"/>
   <rect x="36.8" y="194" width="6" height="94.3" ry="0" opacity=".99" style="paint-order:normal"/>
   <rect x="73.4" y="212" width="6.35" height="76.5" ry="0" opacity=".99" style="paint-order:normal"/>
   <rect x="91.6" y="229" width="6.73" height="60" ry="0" opacity=".99" style="paint-order:normal"/>
   <rect x="110" y="238" width="6.95" height="51.7" ry="0" opacity=".99" style="paint-order:normal"/>
  </g>
 </g>
</svg>
